HIERARCHY
ROOT hip
{
  OFFSET 0 0 0
  CHANNELS 6 Xposition Yposition Zposition Zrotation Yrotation Xrotation
  JOINT abdomen
  {
    OFFSET 0 20.6881 -0.73152
    CHANNELS 3 Zrotation Xrotation Yrotation
    JOINT chest
    {
      OFFSET 0 11.7043 -0.48768
      CHANNELS 3 Zrotation Xrotation Yrotation
      JOINT neck
      {
        OFFSET 0 22.1894 -2.19456
        CHANNELS 3 Zrotation Xrotation Yrotation
        JOINT head
        {
          OFFSET -0.24384 7.07133 1.2192
          CHANNELS 3 Zrotation Xrotation Yrotation
          JOINT leftEye
          {
            OFFSET 4.14528 8.04674 8.04672
            CHANNELS 3 Zrotation Xrotation Yrotation
            End Site
            {
              OFFSET 1 0 0
            }
          }
          JOINT rightEye
          {
            OFFSET -3.6576 8.04674 8.04672
            CHANNELS 3 Zrotation Xrotation Yrotation
            End Site
            {
              OFFSET 1 0 0
            }
          }
        }
      }
      JOINT rCollar
      {
        OFFSET -2.68224 19.2634 -4.8768
        CHANNELS 3 Zrotation Xrotation Yrotation
        JOINT rShldr
        {
          OFFSET -8.77824 -1.95073 1.46304
          CHANNELS 3 Zrotation Xrotation Yrotation
          JOINT rForeArm
          {
            OFFSET -28.1742 -1.7115 0.48768
            CHANNELS 3 Zrotation Xrotation Yrotation
            JOINT rHand
            {
              OFFSET -22.5879 0.773209 7.07136
              CHANNELS 3 Zrotation Xrotation Yrotation
              JOINT rThumb1
              {
                OFFSET -1.2192 -0.487915 3.41376
                CHANNELS 3 Zrotation Xrotation Yrotation
                JOINT rThumb2
                {
                  OFFSET -3.37035 -0.52449 3.41376
                  CHANNELS 3 Zrotation Xrotation Yrotation
                  End Site
                  {
                    OFFSET -1.78271 -1.18214 1.43049
                  }
                }
              }
              JOINT rIndex1
              {
                OFFSET -7.75947 0.938293 5.60832
                CHANNELS 3 Zrotation Xrotation Yrotation
                JOINT rIndex2
                {
                  OFFSET -2.54057 -0.884171 1.56538
                  CHANNELS 3 Zrotation Xrotation Yrotation
                  End Site
                  {
                    OFFSET -1.62519 -0.234802 1.16502
                  }
                }
              }
              JOINT rMid1
              {
                OFFSET -8.24714 1.18213 3.41376
                CHANNELS 3 Zrotation Xrotation Yrotation
                JOINT rMid2
                {
                  OFFSET -3.10165 -0.590103 1.0647
                  CHANNELS 3 Zrotation Xrotation Yrotation
                  End Site
                  {
                    OFFSET -2.48547 -0.328903 0.83742
                  }
                }
              }
              JOINT rRing1
              {
                OFFSET -8.82822 0.546677 1.51678
                CHANNELS 3 Zrotation Xrotation Yrotation
                JOINT rRing2
                {
                  OFFSET -2.60934 -0.819778 -0.0198488
                  CHANNELS 3 Zrotation Xrotation Yrotation
                  End Site
                  {
                    OFFSET -2.33842 -0.294052 0.168128
                  }
                }
              }
              JOINT rPinky1
              {
                OFFSET -8.27202 -0.0477905 -0.4584
                CHANNELS 3 Zrotation Xrotation Yrotation
                JOINT rPinky2
                {
                  OFFSET -1.82734 -0.647385 -0.700984
                  CHANNELS 3 Zrotation Xrotation Yrotation
                  End Site
                  {
                    OFFSET -1.69225 -0.51767 -0.607171
                  }
                }
              }
            }
          }
        }
      }
      JOINT lCollar
      {
        OFFSET 2.68224 19.2634 -4.8768
        CHANNELS 3 Zrotation Xrotation Yrotation
        JOINT lShldr
        {
          OFFSET 8.77824 -1.95073 1.46304
          CHANNELS 3 Zrotation Xrotation Yrotation
          JOINT lForeArm
          {
            OFFSET 28.1742 -1.7115 0.48768
            CHANNELS 3 Zrotation Xrotation Yrotation
            JOINT lHand
            {
              OFFSET 22.5879 0.773209 7.07136
              CHANNELS 3 Zrotation Xrotation Yrotation
              JOINT lThumb1
              {
                OFFSET 1.2192 -0.487915 3.41376
                CHANNELS 3 Zrotation Xrotation Yrotation
                JOINT lThumb2
                {
                  OFFSET 3.37035 -0.52449 3.41376
                  CHANNELS 3 Zrotation Xrotation Yrotation
                  End Site
                  {
                    OFFSET 1.78271 -1.18214 1.43049
                  }
                }
              }
              JOINT lIndex1
              {
                OFFSET 7.75947 0.938293 5.60832
                CHANNELS 3 Zrotation Xrotation Yrotation
                JOINT lIndex2
                {
                  OFFSET 2.54057 -0.884171 1.56538
                  CHANNELS 3 Zrotation Xrotation Yrotation
                  End Site
                  {
                    OFFSET 1.62519 -0.234802 1.16502
                  }
                }
              }
              JOINT lMid1
              {
                OFFSET 8.24714 1.18213 3.41376
                CHANNELS 3 Zrotation Xrotation Yrotation
                JOINT lMid2
                {
                  OFFSET 3.10165 -0.590103 1.0647
                  CHANNELS 3 Zrotation Xrotation Yrotation
                  End Site
                  {
                    OFFSET 2.48547 -0.328903 0.83742
                  }
                }
              }
              JOINT lRing1
              {
                OFFSET 8.82822 0.546677 1.51678
                CHANNELS 3 Zrotation Xrotation Yrotation
                JOINT lRing2
                {
                  OFFSET 2.60934 -0.819778 -0.0198488
                  CHANNELS 3 Zrotation Xrotation Yrotation
                  End Site
                  {
                    OFFSET 2.33842 -0.294052 0.168128
                  }
                }
              }
              JOINT lPinky1
              {
                OFFSET 8.27202 -0.0477905 -0.4584
                CHANNELS 3 Zrotation Xrotation Yrotation
                JOINT lPinky2
                {
                  OFFSET 1.82734 -0.647385 -0.700984
                  CHANNELS 3 Zrotation Xrotation Yrotation
                  End Site
                  {
                    OFFSET 1.69225 -0.51767 -0.607171
                  }
                }
              }
            }
          }
        }
      }
    }
  }
  JOINT rButtock
  {
    OFFSET -8.77824 4.35084 1.2192
    CHANNELS 3 Zrotation Xrotation Yrotation
    JOINT rThigh
    {
      OFFSET 0 -1.70687 -2.19456
      CHANNELS 3 Zrotation Xrotation Yrotation
      JOINT rShin
      {
        OFFSET 0 -36.8199 0.73152
        CHANNELS 3 Zrotation Xrotation Yrotation
        JOINT rFoot
        {
          OFFSET 0.73152 -45.1104 -5.12064
          CHANNELS 3 Zrotation Xrotation Yrotation
          End Site
          {
            OFFSET -1.1221 -3.69964 12.103
          }
        }
      }
    }
  }
  JOINT lButtock
  {
    OFFSET 8.77824 4.35084 1.2192
    CHANNELS 3 Zrotation Xrotation Yrotation
    JOINT lThigh
    {
      OFFSET 0 -1.70687 -2.19456
      CHANNELS 3 Zrotation Xrotation Yrotation
      JOINT lShin
      {
        OFFSET 0 -36.8199 0.73152
        CHANNELS 3 Zrotation Xrotation Yrotation
        JOINT lFoot
        {
          OFFSET -0.73152 -45.1104 -5.12064
          CHANNELS 3 Zrotation Xrotation Yrotation
          End Site
          {
            OFFSET 1.1221 -3.69964 12.103
          }
        }
      }
    }
  }
}
MOTION
Frames:	8
Frame Time:	0.03333
6.4213000000000005 63.722699999999996 6.4934 -174.058291 1.281739 -174.217589 -1.150695 13.987409 -0.0 1.287499 -12.973358 16.918282 -9.735998 30.512032 -119.448504 35.365626 32.379207 130.190904 -0.003807 -0.0 0.001643 0.00189 0.0 0.001069 4.238969 -44.742789 -8.647726 112.590273 73.531171 -56.994848 158.159527 45.074641 62.030708 -124.126373 44.294464 108.097193 -174.1935 -11.857287 89.870465 -93.457379 12.677322 36.483753 -0.327504 0.530041 0.185467 -19.131718 33.356406 14.306372 68.985934 -80.153322 40.581002 -34.740262 55.018792 29.184155 -72.757378 -72.144394 -89.771657 -150.982535 0.143283 176.339061 -149.120792 25.573401 -145.197136 -148.507131 13.734786 -142.186073 -0.070904 -0.427806 0.094891 -37.9183 25.535805 -45.440187 -78.827188 7.818815 -139.266911 159.734008 56.676374 -135.476773 157.99978 4.195055 -88.450878 -64.633437 -61.338325 -48.92711 -1.508262 -2.484236 0.82821 65.5708 48.446694 -50.78758 -6.718913 -21.014592 2.76574 -177.624016 -53.094819 -140.00367 -0.004787 1.770779 -0.554044 -9.69845 6.273069 -0.754184 1.20289 -3.047767 1.115433 -7.934585 16.935451 -4.36731 -0.000139 0.000291 -7e-05 -4.365288 -45.654039 -11.824561 169.30281 87.722166 101.975811 28.345391 -16.894143 56.093885 -0.000139 0.000291 -7e-05 64.471611 -63.917639 146.658808 73.219009 -1.636931 103.572888 93.798323 16.14401 -164.184073
8.8916 65.6641 8.1024 -173.787029 -4.051801 -173.895953 -1.249736 14.078756 -0.0 0.569593 -12.475326 16.90951 -13.058887 23.610165 -72.250825 41.800631 3.657469 85.653395 -0.001276 0.0 -0.00079 -0.001276 0.0 -0.00079 -9.870189 35.305959 11.435124 77.207484 -23.121389 55.052945 111.879205 26.368437 55.372647 -53.374179 41.681452 34.72263 -176.598532 -14.21303 89.691185 136.545998 -55.707097 98.030346 -138.49484 4.897094 114.865308 -161.316093 -10.679259 118.832899 -39.286901 53.366851 32.877211 -8.927919 29.437858 7.407927 -0.022485 -1.725932 -0.543201 10.466518 0.083422 -0.060111 -41.390748 -46.840864 -40.213252 -150.591566 25.563507 -146.027419 13.743428 42.431674 -15.568711 -70.733725 -23.468949 -75.053418 -9.088593 -33.166261 -90.436419 10.463249 33.908847 -2.290041 7.758327 7.439167 -1.682173 4.964901 6.050805 -8.83735 -21.010212 -37.459922 5.930443 63.157196 50.168673 -51.505894 -0.541836 -1.58975 0.295799 172.07856 -31.343927 -144.104545 71.924657 72.975005 -89.771322 -4.970684 29.769482 0.410088 149.902223 28.481823 145.831648 25.933474 -40.226654 26.940029 -0.00188 0.000958 -0.0 0.107571 -45.121391 -0.0 102.242875 72.601749 76.124236 54.678387 2.553873 141.154655 0.002024 0.000958 0.003036 54.331441 -66.026149 -123.257757 -34.666679 -50.890503 -139.880565 -23.866387 48.622025 -42.007799
11.4422 68.1408 9.436 -173.774944 -10.863973 -173.688802 -0.172748 13.76233 -31.454204 4.891692 -10.512453 47.760458 8.10454 23.677292 91.654022 -39.922286 7.066531 -82.553685 0.001093 -0.0 -0.003692 0.001093 -0.0 -0.003692 -81.978649 68.328915 85.092568 79.716911 -41.049781 100.750519 6.820889 -21.748078 103.356334 -14.189769 -36.585731 -9.252828 -93.743721 37.963469 53.548427 21.823259 -28.824615 23.039542 5.740202 -9.851599 -2.889987 -157.231302 -9.208053 110.311685 -0.056165 0.168092 0.032403 -7.3076 26.197073 6.026099 -74.842325 72.960262 92.828274 5.871994 1.761129 -4.315156 -18.921971 -32.141015 -18.123562 -19.596989 -37.77575 -21.135071 -4.238524 -44.742764 8.648467 -66.328777 19.222758 -3.729418 -2.188688 -13.644682 -86.124254 8.199222 24.632682 -0.883294 171.70495 -9.3888 -89.949498 -144.687587 -47.343325 -97.730547 -11.101449 -19.709271 4.827833 -12.597478 1.846983 0.897446 36.034617 51.723513 -29.832103 174.448981 -37.806128 -143.428219 -0.005061 0.876083 -0.276092 152.748163 25.113235 -168.031791 146.206643 15.406301 142.729693 148.430947 14.080847 142.235717 -0.002507 -0.000639 -0.000627 4.417255 -46.51144 -173.92234 -67.717393 -77.408926 24.680568 117.379484 27.363918 -3.718518 179.993237 75.749233 0.006977 -166.985363 4.7895 109.861572 37.967073 -30.928446 -55.166378 -0.122894 9.055187 -59.13234
13.736400000000001 70.2726 10.2972 -173.770821 -19.300096 -173.578137 -1.315796 9.141002 -171.773054 1.42785 6.258952 -174.494397 -13.750244 28.590291 -92.915577 45.956908 15.807435 88.156265 0.002905 0.0 0.00203 -0.002695 0.0 -0.000702 -159.221478 -48.028662 170.414166 93.058057 47.967497 -87.577136 -93.925919 -34.037587 90.894214 -171.554261 -39.292989 155.33093 93.028839 -51.083865 40.500362 -59.999531 30.596816 19.322266 -2.685533 4.226644 1.585456 -179.091713 -35.111341 106.02452 -154.52323 10.689175 139.685164 -163.512614 -5.638094 143.062 -145.123792 1.121178 -179.48098 12.033847 45.384263 -3.769433 32.034883 83.319904 6.209604 167.373905 82.809202 -127.172226 13.743447 42.431705 -15.568557 91.563912 16.288799 -92.258022 5.482207 -12.979937 119.75091 -165.936242 -30.950599 -141.119767 -2.02114 -2.00402 0.275356 37.493281 26.826798 -32.617924 19.168309 24.115326 -13.380666 -151.62089 -54.292484 -90.251457 171.870151 -41.091231 -145.16007 167.543062 -17.335657 -143.863721 -0.000946 0.063587 -0.021249 -9.227145 12.719057 -1.661063 131.403833 -19.916079 128.960333 161.540478 55.943052 147.026286 -179.999331 75.750035 -0.001403 -173.812131 29.599926 167.619849 -29.644629 -86.699675 -3.250238 30.983037 7.688987 117.81555 -0.001135 -0.000393 -0.0 25.571603 -67.639753 -180.0 16.402866 -36.950901 144.886646 34.764273 39.341295 33.104842
15.9138 71.5228 10.968300000000001 -173.777775 -28.575973 -173.834116 -0.501629 9.269843 -166.929656 1.926435 5.656991 177.442032 5.66207 20.547273 63.625334 -38.1804 -10.779351 -73.547226 0.001477 0.0 0.003045 0.001477 0.0 0.003045 -155.716972 -4.925359 162.13548 -102.571834 -52.108509 -80.289561 123.266661 -65.577627 -131.607583 -17.478448 -10.089459 -2.75341 -2.814331 2.753981 0.498727 -0.749328 1.480636 2.462464 37.216529 -57.917623 -0.644845 -84.019956 50.347848 70.149027 -10.915548 25.680939 7.592547 -11.526082 33.759006 9.265391 -72.755761 -72.144287 -89.77173 13.7634 -24.954098 -7.973957 -153.203626 41.295145 -148.285859 55.708423 82.427478 -18.980518 157.881288 -65.637835 -175.444806 -167.666349 40.883846 112.619674 118.269723 26.27075 -24.663235 -125.668044 -66.319175 -108.191097 103.199161 36.331221 -60.111745 162.990261 -30.899336 -78.052123 8.571372 12.509277 -5.448772 162.300349 -12.614593 -110.168122 152.827417 14.793577 -138.515211 -143.704011 -74.438865 -111.83138 71.927316 72.973562 -89.772158 -5.189237 26.572763 0.911295 7.146511 -15.70694 6.728163 -10.788013 26.225295 -6.137643 -179.984559 75.75034 -0.010565 -171.64485 30.581668 116.646821 71.929796 -46.276592 -7.273291 -92.210644 -36.780258 -164.887042 -0.001889 0.00015 -0.001417 19.747888 -69.068482 -180.0 13.525377 -50.105062 -25.746621 151.510402 74.823034 123.893753
17.951700000000002 72.10170000000001 11.5573 -172.844195 -38.397572 -175.132263 0.602493 14.515089 -0.0 -0.070606 -10.440029 7.298191 -11.40982 33.897563 -120.905799 45.434174 32.921202 95.35809 0.002626 0.0 0.002811 0.001903 -0.0 -0.001929 -143.298476 38.836985 147.736378 -46.79039 -2.778364 -9.288268 -171.308173 -16.811653 -76.878296 -10.498746 -34.401487 -8.455292 -85.829655 38.630254 47.95525 -27.838365 -5.618496 35.683839 12.216032 -21.784867 -5.119904 -132.754839 21.90228 103.422207 78.539082 -80.91813 49.690089 -5.104489 20.997558 4.531379 -0.02056 -1.724973 -0.54368 -141.265036 -81.140088 -163.825951 -152.875475 39.991162 -148.060652 -148.720815 13.65249 -142.275126 142.973288 39.431386 -147.389565 56.109313 20.655802 4.409913 16.972308 -15.511382 116.572115 -157.40317 -43.763857 -136.087771 171.603472 -9.286234 -89.949822 -16.315545 -61.290982 -16.382751 46.208482 39.653354 -36.317732 67.695253 50.198349 -47.950491 36.035753 51.723313 -29.831969 166.733452 -15.983368 -144.077016 0.015823 -1.322981 0.416961 6.075876 62.273085 -18.859523 -15.299666 53.352284 -12.044352 1.863609 -8.651901 3.413452 -0.000279 -0.000108 0.000359 14.916791 -42.039572 -0.0 -29.999192 71.297999 -45.70001 81.681317 26.305113 13.221023 -179.997734 75.74975 -0.002338 -176.222784 4.104471 137.311779 47.681776 -30.258317 152.179408 178.481546 76.950404 -108.766346
19.6631 72.0816 12.1677 -171.876698 -47.93011 -176.236813 2.001853 14.56401 0.0 -0.03907 -10.340566 3.70142 -5.146842 17.812226 2.068895 1.091828 -37.212298 -20.822749 -0.001834 0.0 -0.000127 -0.001834 0.0 -0.000127 0.023145 -0.138576 -0.031446 65.370059 -10.356003 62.134495 -7.63363 7.572128 102.836659 -8.737052 -37.723261 -8.786827 -107.933589 35.149104 63.3175 -134.000922 -16.832341 73.657324 -150.885976 -16.291462 120.978347 -26.664746 47.323946 14.628169 -169.089052 -33.247257 145.376243 -42.543112 58.281366 36.545587 -145.119373 0.266946 -179.214124 -71.284917 -78.003285 -92.775481 -23.391335 -36.348917 -22.49452 -22.349874 -40.123333 -23.886247 0.273318 1.606729 -0.361537 115.93019 -13.81061 -116.527239 -5.192697 -14.111794 106.131884 -168.979443 -22.42605 -142.894008 158.000453 4.195533 -88.451491 -102.508572 -58.129564 -71.984554 -10.211607 -18.050717 4.562753 173.264325 -32.052719 -107.831477 10.975759 25.789928 -7.639925 171.993101 -31.360839 -144.080984 -0.004506 0.91774 -0.288599 148.29052 -76.777779 171.087048 -27.130617 80.263708 -10.031336 -20.215439 59.125608 -7.821863 -179.997425 75.748769 -0.002657 -167.417177 29.507849 101.814478 81.428696 -25.114269 97.384128 56.136522 -10.605175 153.359448 179.99301 75.748769 0.004783 -179.134728 4.394948 -0.04917 14.868293 65.254911 75.745738 -63.859519 -85.178749 -170.508563
21.1265 71.9417 12.7786 -171.667993 -56.025653 -176.904997 2.311636 14.369582 -0.0 0.085226 -10.152596 1.212371 -14.601862 26.097724 -62.706884 45.563049 -9.562603 42.76788 -0.004906 0.0 -0.001257 0.000872 0.0 0.001237 -155.537274 -3.733502 161.884531 -71.698219 -31.598516 -75.837294 -133.12885 -20.29826 -59.401093 0.377435 -66.914597 -9.959315 -78.030429 38.689338 42.412826 -41.557803 -0.476051 43.217046 -166.865161 -44.037616 122.052089 -60.827424 57.046952 47.342776 23.903907 -61.333806 1.400311 -172.125339 -30.802298 144.003361 -145.122074 1.974268 -179.749206 11.757919 29.430039 -5.654358 12.986874 44.344679 10.760331 -23.650418 -39.910274 -23.741125 159.219473 -48.028334 -170.416267 84.510562 -17.132039 112.355011 115.172863 -25.30768 81.769116 -8.632458 -24.73726 -2.842876 2.889844 2.827929 -0.513451 -27.457758 -41.905141 14.948152 -28.868127 -48.979392 4.340505 -155.792968 -58.030576 -88.906862 157.05245 3.993274 -141.297506 -3.125024 0.398862 -0.409649 0.00114 -0.018547 0.005559 -11.078334 -12.970841 1.61818 152.348808 37.911062 147.687653 -16.387692 43.890963 -6.189566 0.002129 0.000774 0.001065 15.695049 -44.454722 0.0 0.349108 67.689441 24.398515 83.393543 -73.393027 -0.915651 0.000287 0.000774 -0.000368 -4.38935 -71.664962 -13.560754 -29.620295 67.687422 -6.770756 -92.445839 -65.132995 7.258859
